<?xml version="1.0" encoding="UTF-8" standalone="no"?><svg xmlns="http://www.w3.org/2000/svg" xmlns:xlink="http://www.w3.org/1999/xlink" contentScriptType="application/ecmascript" contentStyleType="text/css" height="243px" preserveAspectRatio="none" style="width:291px;height:243px;" version="1.1" viewBox="0 0 291 243" width="291px" zoomAndPan="magnify"><defs><filter height="300%" id="f1a12lfhogbe39" width="300%" x="-1" y="-1"><feGaussianBlur result="blurOut" stdDeviation="2.0"/><feColorMatrix in="blurOut" result="blurOut2" type="matrix" values="0 0 0 0 0 0 0 0 0 0 0 0 0 0 0 0 0 0 .4 0"/><feOffset dx="4.0" dy="4.0" in="blurOut2" result="blurOut3"/><feBlend in="SourceGraphic" in2="blurOut3" mode="normal"/></filter></defs><g><!--cluster DonaRicota--><polygon fill="#FFFFFF" filter="url(#f1a12lfhogbe39)" points="22,24,116,24,123,46.2969,269,46.2969,269,231,22,231,22,24" style="stroke: #000000; stroke-width: 1.5;"/><line style="stroke: #000000; stroke-width: 1.5;" x1="22" x2="123" y1="46.2969" y2="46.2969"/><text fill="#000000" font-family="sans-serif" font-size="14" font-weight="bold" lengthAdjust="spacingAndGlyphs" textLength="88" x="26" y="38.9951">DonaRicota</text><!--class Presente--><rect fill="#FEFECE" filter="url(#f1a12lfhogbe39)" height="48" id="Presente" style="stroke: #A80036; stroke-width: 1.5;" width="89" x="149.5" y="167"/><ellipse cx="164.5" cy="183" fill="#ADD1B2" rx="11" ry="11" style="stroke: #A80036; stroke-width: 1.0;"/><path d="M167.4688,188.6406 Q166.8906,188.9375 166.25,189.0781 Q165.6094,189.2344 164.9063,189.2344 Q162.4063,189.2344 161.0781,187.5938 Q159.7656,185.9375 159.7656,182.8125 Q159.7656,179.6875 161.0781,178.0313 Q162.4063,176.375 164.9063,176.375 Q165.6094,176.375 166.25,176.5313 Q166.9063,176.6875 167.4688,176.9844 L167.4688,179.7031 Q166.8438,179.125 166.25,178.8594 Q165.6563,178.5781 165.0313,178.5781 Q163.6875,178.5781 163,179.6563 Q162.3125,180.7188 162.3125,182.8125 Q162.3125,184.9063 163,185.9844 Q163.6875,187.0469 165.0313,187.0469 Q165.6563,187.0469 166.25,186.7813 Q166.8438,186.5 167.4688,185.9219 L167.4688,188.6406 Z "/><text fill="#000000" font-family="sans-serif" font-size="12" lengthAdjust="spacingAndGlyphs" textLength="57" x="178.5" y="187.1543">Presente</text><line style="stroke: #A80036; stroke-width: 1.5;" x1="150.5" x2="237.5" y1="199" y2="199"/><line style="stroke: #A80036; stroke-width: 1.5;" x1="150.5" x2="237.5" y1="207" y2="207"/><!--class ParPresentes--><rect fill="#FEFECE" filter="url(#f1a12lfhogbe39)" height="48" id="ParPresentes" style="stroke: #A80036; stroke-width: 1.5;" width="117" x="135.5" y="59"/><ellipse cx="150.5" cy="75" fill="#ADD1B2" rx="11" ry="11" style="stroke: #A80036; stroke-width: 1.0;"/><path d="M153.4688,80.6406 Q152.8906,80.9375 152.25,81.0781 Q151.6094,81.2344 150.9063,81.2344 Q148.4063,81.2344 147.0781,79.5938 Q145.7656,77.9375 145.7656,74.8125 Q145.7656,71.6875 147.0781,70.0313 Q148.4063,68.375 150.9063,68.375 Q151.6094,68.375 152.25,68.5313 Q152.9063,68.6875 153.4688,68.9844 L153.4688,71.7031 Q152.8438,71.125 152.25,70.8594 Q151.6563,70.5781 151.0313,70.5781 Q149.6875,70.5781 149,71.6563 Q148.3125,72.7188 148.3125,74.8125 Q148.3125,76.9063 149,77.9844 Q149.6875,79.0469 151.0313,79.0469 Q151.6563,79.0469 152.25,78.7813 Q152.8438,78.5 153.4688,77.9219 L153.4688,80.6406 Z "/><text fill="#000000" font-family="sans-serif" font-size="12" lengthAdjust="spacingAndGlyphs" textLength="85" x="164.5" y="79.1543">ParPresentes</text><line style="stroke: #A80036; stroke-width: 1.5;" x1="136.5" x2="251.5" y1="91" y2="91"/><line style="stroke: #A80036; stroke-width: 1.5;" x1="136.5" x2="251.5" y1="99" y2="99"/><!--class Neto--><rect fill="#FEFECE" filter="url(#f1a12lfhogbe39)" height="48" id="Neto" style="stroke: #A80036; stroke-width: 1.5;" width="62" x="38" y="59"/><ellipse cx="53" cy="75" fill="#ADD1B2" rx="11" ry="11" style="stroke: #A80036; stroke-width: 1.0;"/><path d="M55.9688,80.6406 Q55.3906,80.9375 54.75,81.0781 Q54.1094,81.2344 53.4063,81.2344 Q50.9063,81.2344 49.5781,79.5938 Q48.2656,77.9375 48.2656,74.8125 Q48.2656,71.6875 49.5781,70.0313 Q50.9063,68.375 53.4063,68.375 Q54.1094,68.375 54.75,68.5313 Q55.4063,68.6875 55.9688,68.9844 L55.9688,71.7031 Q55.3438,71.125 54.75,70.8594 Q54.1563,70.5781 53.5313,70.5781 Q52.1875,70.5781 51.5,71.6563 Q50.8125,72.7188 50.8125,74.8125 Q50.8125,76.9063 51.5,77.9844 Q52.1875,79.0469 53.5313,79.0469 Q54.1563,79.0469 54.75,78.7813 Q55.3438,78.5 55.9688,77.9219 L55.9688,80.6406 Z "/><text fill="#000000" font-family="sans-serif" font-size="12" lengthAdjust="spacingAndGlyphs" textLength="30" x="67" y="79.1543">Neto</text><line style="stroke: #A80036; stroke-width: 1.5;" x1="39" x2="99" y1="91" y2="91"/><line style="stroke: #A80036; stroke-width: 1.5;" x1="39" x2="99" y1="99" y2="99"/><!--link ParPresentes to Presente--><path d="M194,120.34 C194,135.68 194,153.1 194,166.68 " fill="none" id="ParPresentes-Presente" style="stroke: #A80036; stroke-width: 1.0;"/><polygon fill="#A80036" points="194,107,190,113,194,119,198,113,194,107" style="stroke: #A80036; stroke-width: 1.0;"/><text fill="#000000" font-family="sans-serif" font-size="13" lengthAdjust="spacingAndGlyphs" textLength="8" x="184.975" y="127.1558">1</text><text fill="#000000" font-family="sans-serif" font-size="13" lengthAdjust="spacingAndGlyphs" textLength="8" x="185.025" y="156.007">2</text><!--link Neto to ParPresentes--><path d="M100.25,83 C111.97,83 123.69,83 135.41,83 " fill="none" id="Neto-ParPresentes" style="stroke: #A80036; stroke-width: 1.0;"/><text fill="#000000" font-family="sans-serif" font-size="13" lengthAdjust="spacingAndGlyphs" textLength="8" x="107.9609" y="78.4408">1</text><text fill="#000000" font-family="sans-serif" font-size="13" lengthAdjust="spacingAndGlyphs" textLength="8" x="119.3907" y="79.1145">1</text><!--
@startuml
package DonaRicota{
    class Presente
    class ParPresentes
    class Neto
}

ParPresentes "1" *- - "2" Presente
Neto "1" - "1" ParPresentes

@enduml

PlantUML version 1.2018.13(Mon Nov 26 15:11:51 BRST 2018)
(GPL source distribution)
Java Runtime: OpenJDK Runtime Environment
JVM: OpenJDK 64-Bit Server VM
Java Version: 11.0.20+8-post-Ubuntu-1ubuntu120.04
Operating System: Linux
OS Version: 5.15.0-79-generic
Default Encoding: UTF-8
Language: en
Country: US
--></g></svg>